<?xml version="1.0" encoding="UTF-8"?>
<svg id="Layer_1" xmlns="http://www.w3.org/2000/svg" version="1.1" xmlns:xlink="http://www.w3.org/1999/xlink" viewBox="0 0 169.3 129.6">
  <!-- Generator: Adobe Illustrator 29.0.1, SVG Export Plug-In . SVG Version: 2.1.0 Build 192)  -->
  <defs>
    <style>
      .st0 {
        fill: #292a69;
      }

      .st1 {
        fill: #292a69;
      }

      .st2 {
        fill: #f35627;
      }

      .st3 {
        fill: #e0e7f5;
        filter: url(#drop-shadow-1);
      }
    </style>
    <filter id="drop-shadow-1" x="0" y="0" width="168" height="127" filterUnits="userSpaceOnUse">
      <feOffset dx="1" dy="1"/>
      <feGaussianBlur result="blur" stdDeviation="1"/>
      <feFlood flood-color="#292a69" flood-opacity="1"/>
      <feComposite in2="blur" operator="in"/>
      <feComposite in="SourceGraphic"/>
    </filter>
  </defs>
  <path class="st3" d="M129.9,122.6c-1.3,0-2.4-.3-3.2-.5-5.4-1.3-9.3-4.4-12.4-6.3-.4-.2-1.7-.4-2.3-.1-4.7,1.8-11.8,5.3-13,6.1-1.7,1.3-4.2.8-5.3-1.1-3.7-6.5-8.8-12-12.1-14.8-1.1,1.8-3.5,2.3-5.2,1-.9-.7-10.7-6.7-11.9-7.2-.9-.4-8.4-3.9-9.1-4.2-2-.6-3-2.9-2.2-4.8,1.4-3.2,2.8-5.7,4.8-8.5-1.1-4.8-1.4-11.8-1.2-14.9-6.1.2-15.4-1-16.3-6.9-.6-4.3,3.1-8,10.5-10.5,1.3-.4,1.2-2.1-.5-2-4.1.3-8.4,1-10,1.3-8.7,1.3-19.3,0-20.5-8.7-.1-1,.1-1.9.7-2.7-5.6-.2-12.1-3.9-12.9-9.2-.2-1.6.6-3.1,2.1-3.8-4.3-1.4-6.8-4.2-7.4-8.3-.3-1.9,1-3.8,3-4.1,17.4-2.6,46.7-6.9,62.8-9.3,8.6-1.3,18-.4,25.1,4.8,8.3,6,4.8,5.6,8.3,5,10.1-1.6,22.1,0,32.2,5.5,7.2,4,13,9.7,16.6,16.4,8.2.8,12.5,3.3,13.1,7.4,1,6.5-8.3,9.8-10.1,10.4.3,1.5.3,2.3.3,2.8.4,3.9-.2,5.3.2,8.1,1.1,7.4,1.4,17.3,2.2,22.6.3,2.1.8,6.1-3.4,8.3-2,1-3.9,1.1-6,.5-.1.7-1,3.5-3.3,5.4.1.9-.8,2.6-1.5,3.2-.8.9-1.4,2.1-1.6,2.7-.5,1.7,1.8,3.8-1.2,9.4-2.5,4.7-5.7,7-9.5,7Z"/>
  <g>
    <path class="st0" d="M87.7,63.8c0,.8,0,3-.3,4.1-.3,2.1-2.6,2.6-3.6,3.1,0-1.8-.2-4.1,0-6.5-1.8.3-3.2.5-5,.8-.2,1.8,0,5.8,0,7.6-.8.3-3.8,1.6-4.6,1.9-.2-2.6-.3-5.9-.2-8.7-1.4.2-3.6.5-4.9.7-.3,2-.3,7.9.2,10.8-1.3.9-3.4,2.3-4.2,3.3-.8-3.3-.9-9.9-.6-13.3-2.3.3-3.9.6-5.4.7-.4,2.9,0,12.4,1.5,17-2.6,3.3-4.2,5.9-5.8,9.8,1.8.6,3.7,1.7,5.5,2.4,0,0,1.8-3.3,2.5-4.5,6-10,11.8-11.9,25.3-17.1,2.6-1,4.9-3,5.4-8.4,1.4-.1,3.5-.4,4.8-.7.3,6.6-3.5,12.5-9.5,14.1-2,.5-9.7,3.4-11.9,4.7-4.8,2.6-10.2,8.7-12,14.1,1.8.8,3.5,1.9,5.3,2.8.2-.4.5-1.3.8-1.8,2.2-4.6,6.4-8.2,9.9-10.2,4.4-2.5,9.1-2.7,15.6-7.1,5.5-3.7,7.7-9,8-17.1,1.7-.2,3.2-.4,4.9-.7-.3,8.5-1.4,14.3-6.2,19-7.5,7.2-13.2,6.7-19.1,9.9-3.5,1.9-7.5,5.4-9.9,10.4,1.2.8,3,2,4.2,2.9.8-1.3,2-3,2.3-3.5,4.9,2.9,12.4,11,17.2,19.3,1.4-1.1,9.5-5,14.7-7,1.6-.6,4.3-.5,5.8.5,3.4,2.1,7,5,12.1,6.3,2.5.6,5.8,1.3,9.2-5.1,2.7-5.1-.1-5.5,1-9.2.3-1.1.5-1.6,1.6-3-3.3-1.3-4.8-2.6-6.1-4.3-1.3.4-.2,4.1-.3,6.3,0,1.7.2,5.1-1.2,7.1-1.9,2.7-3.9,2.1-7.9.8-4-1.4-15.2-8.2-18.9-11.5-3.7-3.3-4.9-9.7-3.9-12.6,1.8-1.4,4.5-3.9,6.4-6.8.8,2.4,2.1,5,3.4,7.3,1.6,2.8,4.2,1.1,3-1.9-1.5-3.7-2.6-7.9-3-12.1.9-3.2,1.5-7.4,1.6-13.3,5.2-.8,9.7,1.8,11.5,2.6,6.8,2.9,4.1,9,10.7,8.3,7.7-.8,6.7-5.6,12.4-6.4.9,4.8,1,14.4,1.1,19.6-2.6-.3-2.3-2.4-3.6-2.5-2.2-.3-5.6,1.9-3.4,6.3,3.5-.7,4.1.4,5.9.9,1.9.6,3.6,1.5,5.6.5,2.2-1.1,1.9-2.8,1.6-5.2-.7-5.2-1.1-16.1-2.2-23.7-.5-3.4,0-4.9-.3-8.8,0-.6,0-1.4-.3-2.7-15.3,3.3-51,8-66.5,10.2Z"/>
    <path class="st0" d="M133.4,95.6c.8-1.1,0-1.6-.5-1.8-.9-.4-1.9.4-2.3,1.2-1,1.9-3.3,4.3-2.8,4.9.6.8,1.5.8,2.3.3.6-.4,1.6-1.6,2.1-2.2,4.2,1.9,7.1.7,12.3,4,1.1-.9,2-2.3,2.7-3.6-1.4-.8-1.1-1.7-2.6-2-6.1-1.4-7.6.5-11.2-.8Z"/>
    <path class="st1" d="M152.4,37.7c-8-17-28.3-26.2-48.9-23.2.5.7,1.4,1.8,1.9,2.9,2.1,4.7,1,13.2,2.5,17.5,1.2,3.5,3.8,5.9,5.7,6.8,4,1.7,2.2,3.3-1.8,1.5-3.1-1.3-7-5.6-8.4-8.6-1.3-2.7-1.9-7.7-2.3-10.1-2.7-17.3-17.3-22.7-33.1-20.4C50.5,6.7,18.6,11.4,1.2,14c1.3,9,16.9,6.7,24.4,5.6,35.4-5.2,33.5-5,34.6-4.8,1.3.2,2.2,1.1,2.4,2.6.1,1.5-.7,1.9-1.9,2.4-1.4.6-2.2.3-35.5,5.5.8,5.4,9.7,7.4,18.9,6.1,27.5-4.1,26-3.8,26.8-3.8,1.3,0,2.3.7,2.7,2.2.4,1.4-.3,2.2-1.6,2.9-1.9.9-26.4,4-29.3,4.6,1.1,7.2,12.2,7.4,21,6.1,16.6-2.5,16.3-2.5,17.5-2.3,1.5.2,3.4,1.3,3.6,2.7l-26.8,4c-.4,1.4-.7,2.8-1,4.3-9.8,1.9-15.5,5.5-15,8.7.4,3,8.2,5.3,19.6,3.6,10-1.5,39.8-6.1,42.2-6.4,18.7-2.6,33-4.2,52-8,1.4-.2,10-3.2,9.4-7.2-.4-2.7-4.7-4.3-12.6-4.8Z"/>
    <path class="st2" d="M17.5,25.2c-4.2.6-8,1.2-10.7,1.6.6,4,7.1,7.1,11.6,6.4,6.3-.9,3.1-8.6-1-8Z"/>
    <path class="st2" d="M32.6,37.5c-1.5.2-11.2,1.6-12.7,1.9.9,5.8,9.1,7.3,17.5,6,3.6-.5,1.6-8.9-4.8-8Z"/>
  </g>
</svg>