<?xml version="1.0" encoding="utf-8"?>
<!-- Generator: Adobe Illustrator 28.0.0, SVG Export Plug-In . SVG Version: 6.00 Build 0)  -->
<svg version="1.1" id="Layer_1" xmlns="http://www.w3.org/2000/svg" xmlns:xlink="http://www.w3.org/1999/xlink" x="0px" y="0px"
	 viewBox="0 0 1896 615" style="enable-background:new 0 0 1896 615;" xml:space="preserve">
<style type="text/css">
	.st0{fill:#CCCED1;}
	.st1{fill:#D6A319;}
	.st2{fill:#3A69B2;stroke:#CCCED1;stroke-width:2;stroke-miterlimit:10;}
	.st3{fill:#3A69B2;stroke:#CCCED1;stroke-miterlimit:10;}
	.st4{fill:#3A69B2;}
	.st5{fill:#D6A319;stroke:#CCCED1;stroke-miterlimit:10;}
	.st6{fill:none;}
	.st7{fill:#231F20;stroke:#CCCED1;stroke-miterlimit:10;}
</style>
<path class="st0" d="M557,9.7c3.4,3,307.1,389.5,308.8,393.1c-1.5,0.6-3.1,0.3-4.6,0.3c-27.9,0-55.7-0.1-83.6,0.1
	c-3.6,0-5.8-1.3-8-3.9C707,323.2,644.4,247.2,581.7,171.1c-4.2-5.1-3.3-5.1-7.5,0.2c-61,75.6-121.9,151.2-182.9,226.8
	c-1.8,2.2-3.4,3.6-6.6,3.6c-44-0.1-87.9-0.1-131.9-0.1c-0.9,0-1.9,0-2.8,0c-0.1-0.4-0.2-0.5-0.3-0.7c0-0.1-0.1-0.3,0-0.4
	C351.6,270.7,453.5,141,555.3,11.2"/>
<path class="st0" d="M316,396.4c1.9,0.9,3.7,0.6,5.4,0.6c17.8,0,35.7-0.2,53.5,0.1c4.7,0.1,7.5-1.5,10.4-5.1
	c63.2-78.9,126.6-157.6,189.9-236.4c0.6-0.7,1.2-1.5,1.8-2.2c0.8-0.9,1.6-1,2.4,0c1.3,1.6,2.7,3.2,4,4.8
	c62.9,76.8,125.9,153.7,188.8,230.5c2.6,3.2,4.6,7.5,8.2,9.1c3.7,1.6,8.2,0.5,12.3,0.5c1.6,0,3.4,0.5,5.2-1c-1.6-2-3.1-3.8-4.6-5.6
	c-79.6-96-159.1-191.9-238.7-287.8c-5.4-6.5-5.4-6.5-10.6,0.2c-75.1,96-150.3,192.1-225.4,288.1C317.6,393.4,316.4,394.4,316,396.4z
	"/>
<path class="st0" d="M557,27c-95.2,121.8-190.1,243.3-284.9,364.5c0.8,1.3,1.5,1.2,2.1,1.2c6.8,0,13.7-0.3,20.5,0.1
	c4.5,0.3,7.2-1.4,9.9-4.9c64-82.1,128.1-164.2,192.2-246.2c17.3-22.1,34.5-44.2,51.8-66.2c2.7-3.4,2.7-3.4,5.5,0
	c6.2,7.6,12.5,15.3,18.7,23c58.8,72.4,117.6,144.9,176.4,217.3c20.1,24.7,40.2,49.4,60.2,74.2c1.8,2.3,3.7,3.5,6.8,3.5
	c8.3-0.2,16.6,0,24.8-0.1c1.2,0,2.6,0.3,3.5-0.8C843.1,389.2,562,31.8,557,27z"/>
<path class="st1" d="M946.4,601.9c-309.2,0-618.4,0-927.6,0c-0.5,0-0.9,0-1.4,0c-2.9-0.3-6.7,1.4-8.3-1.3c-1.9-3.1-0.8-7.1-0.6-10.7
	c0.1-1.6,1.3-2.4,2.8-2.5c2-0.1,4.1-0.1,6.1-0.1c619.7,0,1239.5,0,1859.2,0c9.5,0,9.5,0,9.1,9.4c-0.2,5.1-0.2,5.1-5.6,5.3
	c-2,0.1-4.1,0-6.2,0C1564.8,601.9,1255.6,601.9,946.4,601.9z"/>
<path class="st1" d="M946.4,470.7c-309.2,0-618.4,0-927.6,0c-0.5,0-0.9,0-1.4,0c-2.9-0.3-6.7,1.4-8.3-1.3c-1.9-3-0.8-7.1-0.6-10.7
	c0.1-1.6,1.2-2.4,2.7-2.5c2-0.1,4.1-0.1,6.1-0.1c619.7,0,1239.5,0,1859.2,0c9.7,0,9.7,0.1,9.2,10c-0.2,3.6-1.6,4.8-5,4.7
	c-2.3-0.1-4.6,0-6.8,0C1564.8,470.7,1255.6,470.7,946.4,470.7z"/>
<path class="st0" d="M1722.1,274c-1.2,0.7-2.4,0.4-3.6,0.4c-13.9,0-27.8,0-41.6,0c-3.7,0-3.7,0-4.7-3.5
	c-5.9-20.6-11.8-41.1-17.7-61.7c-1.3-4.6-1-3.9-5.2-3.9c-5.8,0-5.2-0.9-5.2,5.3c0,19.5,0,39,0,58.5c0,1-0.1,1.9,0,2.9
	c0.2,2.1-0.8,2.6-2.7,2.5c-8.4-0.1-16.8,0-25.1,0c-5.2,0-10.4-0.1-15.7,0c-2,0-2.8-0.7-2.6-2.6c0.1-0.8,0-1.6,0-2.5
	c0-62.5,0-125,0-187.5c0-5.2-0.5-4.6,4.6-4.6c17.9,0,35.7,0,53.6,0c9.8,0,19.5,1.1,28.7,4.8c16.2,6.5,25.2,18.8,27.9,35.9
	c0.9,5.9,0.7,11.8,0.7,17.7c0,6.2,0,12.4,0,18.5c0,12.9-4.5,23.9-13.7,32.9c-2.1,2.1-2.4,3.8-1.6,6.5c7.7,25.5,15.3,51,22.9,76.5
	C1721.7,271.3,1722.2,272.6,1722.1,274z M1604.9,175.8c0,29.1,0,58.3,0,87.4c0,4.3,0,4.4,4.3,4.4c7.8,0,15.7,0,23.5,0
	c4.4,0,4.4,0,4.4-4.7c0-9.1,0-18.1,0-27.2c0-11.3,0-22.5,0-33.8c0-3.5,0.1-3.5,3.4-3.6c4.9-0.1,9.9,0.1,14.8-0.1
	c2.4-0.1,3.6,0.9,3.9,3.2c0.1,0.7,0.4,1.3,0.6,2c5.6,19.8,11.3,39.6,16.9,59.4c1.5,5.2,0.9,4.7,6.4,4.7c8.4,0,16.8,0,25.2,0
	c4.9,0,4.9,0,3.4-4.8c-7-23.3-14-46.6-21.1-69.8c-1.2-3.7-0.9-6.1,2.3-8.8c8.2-7.2,13.1-16.2,13.4-27.3c0.2-11.3,0.5-22.5-0.1-33.8
	c-0.9-18.3-10.7-30.5-28.1-36c-6.8-2.1-13.7-2.9-20.7-3c-16.1-0.1-32.2,0-48.2-0.1c-0.4,0-0.8,0-1.2,0c-2.8,0.2-2.9,0.2-3,3.1
	c0,1,0,1.9,0,2.9C1604.9,118.6,1604.9,147.2,1604.9,175.8z"/>
<path class="st0" d="M1277.4,274c-1.9,0.6-3.4,0.4-4.9,0.4c-12.8,0-25.6,0-38.3,0c-4.5,0-4.5,0-5.3-4.5c-2-11.2-4.1-22.4-6.1-33.6
	c-0.7-4-0.7-4-4.5-4c-4.9,0-9.9,0-14.8,0c-3.5,0-3.6,0-4.2,3.4c-1.5,7.8-2.9,15.7-4.4,23.5c-0.7,3.9-1.5,7.8-2.2,11.7
	c-0.7,3.5-0.7,3.5-4.5,3.5c-10.9,0-21.7,0-32.6,0c-3.6,0-7.1,0-10.4,0c-0.9-0.8-0.7-1.5-0.6-2.2c6.7-33.7,13.3-67.3,20-101
	c5.9-29.9,11.8-59.8,17.8-89.6c0.1-0.7,0.3-1.3,0.4-2c0.2-1.9,1.2-2.4,3-2.4c16.9,0.1,33.8,0,50.7,0.1c2.7,0,2.7,0.1,3.4,3.8
	c2.8,14.3,5.6,28.6,8.4,42.8c7.3,37.6,14.7,75.2,22,112.7c2.2,11.4,4.5,22.9,6.7,34.3C1277.3,271.9,1277.3,272.9,1277.4,274z
	 M1252,267.5c4.7,0,9.3,0,14,0c3.1,0,3.1-0.1,2.6-3c-0.7-4.1-1.5-8.1-2.3-12.1c-10.6-54.7-21.3-109.5-31.9-164.2
	c-0.8-4.1-0.8-4.2-5-4.2c-11.4,0-22.8,0-34.2,0c-7.8,0-6.2-0.9-7.6,6.4c-9.3,47-18.6,94.1-27.8,141.1c-2.1,10.9-4.3,21.8-6.4,32.8
	c-0.6,3.1-0.5,3.3,2.3,3.3c9.3,0.1,18.7,0,28,0c2.1,0,2.9-0.8,3.2-2.8c0.6-4.1,1.5-8.1,2.2-12.2c1.4-7.8,2.8-15.7,4.3-23.5
	c0.6-3.5,0.7-3.5,4.2-3.6c2.3,0,4.7,0,7,0c6.7,0,13.5,0.1,20.2,0c2.2,0,3.3,0.8,3.6,2.9c0.1,0.5,0.2,1.1,0.3,1.6
	c2.1,11.3,4.1,22.7,6.3,34c0.6,3.4,0.7,3.4,4.3,3.5C1243.4,267.6,1247.7,267.5,1252,267.5z"/>
<path class="st0" d="M1435.9,175.7c0-31.3,0-62.7,0-94c0-5-0.2-4.5,4.4-4.5c18,0,36,0,54,0c9.2,0,18.1,1.2,26.5,5
	c19.5,8.6,29.9,23.5,30.3,45c0.2,9.2,0,18.4,0,27.6c0,12.1-4.3,22.6-12.5,31.4c-11.2,12.1-25.2,18.3-41.6,19
	c-4.3,0.2-8.5,0.1-12.8,0.1c-1.7,0-2.5,0.6-2.4,2.4c0.1,2.9,0,5.8,0,8.7c0,17.6,0,35.2,0,52.8c0,1-0.1,1.9,0,2.9
	c0.2,2-0.7,2.6-2.6,2.6c-9.2-0.1-18.4,0-27.6,0c-4.4,0-8.8-0.1-13.2,0c-2,0-2.8-0.7-2.6-2.6c0.1-1,0-1.9,0-2.9
	C1435.9,237.8,1435.9,206.8,1435.9,175.7z M1443,175.4c0,29.3,0,58.5,0,87.8c0,4.4,0,4.4,4.2,4.4c7.6,0,15.1,0,22.7,0
	c5.9,0,5.3,0,5.3-5.4c0-19.8,0-39.6,0-59.3c0-4.5,0-4.4,4.6-4.5c6.7-0.1,13.5,0.2,20.2-0.4c10.7-0.9,20.3-4.7,28.6-11.6
	c10.5-8.7,16.4-19.7,16.1-33.7c-0.2-8.2,0-16.5,0-24.7c0-17.9-8.7-30.4-24.4-38.4c-7.8-3.9-16.2-5.4-24.7-5.5
	c-16.2-0.2-32.4-0.1-48.6-0.1c-3.7,0-3.7,0.1-3.7,3.6c0,1,0,1.9,0,2.9C1443,118.8,1443,147.1,1443,175.4z"/>
<path class="st0" d="M1881.9,176c0,15.5-0.3,31.1,0.1,46.6c0.5,22-10.1,37.1-28.8,47.1c-20.3,11-51.3,9.9-71.3-8.4
	c-10.7-9.8-16.4-21.8-16.3-36.4c0.1-32.3,0.2-64.6,0-96.9c-0.1-17.5,7.2-30.9,21-41.2c11.2-8.3,24-11.9,37.9-11.7
	c17.1,0.2,32,5.9,44.1,18.3c8.8,9.1,13.4,19.9,13.4,32.7C1881.9,142.7,1881.9,159.4,1881.9,176z M1772.6,175.4
	C1772.6,175.4,1772.6,175.4,1772.6,175.4c0,16.6,0.1,33.2,0,49.9c0,9.6,2.6,18.2,8.9,25.5c6.5,7.6,14.3,13.2,23.9,16.2
	c6.6,2.1,13.4,2.7,20.3,2.6c15.2-0.4,28-6,38.6-16.9c7.1-7.3,10.9-16.1,10.9-26.4c0.1-33.5,0.1-67,0-100.6c0-10.1-3.7-18.8-10.7-26
	c-16.6-17.1-36.6-21.5-59-14.7c-21.8,6.6-32.9,22.4-32.9,45.2C1772.6,145.2,1772.6,160.3,1772.6,175.4z"/>
<path class="st2" d="M1744.5,367.4c1.2-2.5,0.9-4.2,0.9-5.8c0-14.9,0-29.7,0-44.6c0-1.4,0-2.7,0-4.1c0-1.8,0.7-2.9,2.7-2.8
	c3.7,0,7.4,0,11.1,0c1.6,0,2.5,0.9,2.5,2.5c0,1.2,0.1,2.4,0.1,3.5c0,26.5,0,53,0,79.6c0,0.8-0.1,1.7,0,2.5c0.1,2.3-0.9,3.4-3.3,3.3
	c-3.5-0.1-7.1-0.2-10.6,0.1c-3.4,0.3-4.3-1.7-5.3-4.2c-4.6-12.5-9.4-25-14.1-37.5c-1.6-4.4-3.3-8.7-5.3-13.8
	c-1.1,2.2-0.8,3.7-0.8,5.1c0,14.5,0,29.1,0,43.6c0,1.2-0.1,2.4,0,3.5c0.1,2-0.7,3.2-2.9,3.2c-3.5,0-7.1,0-10.6,0
	c-1.6,0-2.5-0.7-2.6-2.4c0-1.2-0.1-2.4-0.1-3.5c0-26.5,0-53,0-79.6c0-0.5,0-1,0-1.5c0.1-4.2,0.1-4.3,4.2-4.4
	c3.4-0.1,6.8,0.1,10.1-0.1c2.9-0.2,4.2,1,5.1,3.7c3.6,10.7,7.4,21.4,11.1,32.1c2,5.9,4.1,11.8,6.1,17.7
	C1743.3,364.5,1743.7,365.6,1744.5,367.4z"/>
<path class="st2" d="M1149,355.7c0-13.5,0-27,0-40.5c0-5.1,0.1-5.2,5-5.2c7.6,0,15.2,0,22.8,0c3.2,0,6.4,0.5,9.5,1.5
	c7.9,2.6,13,8.9,13.3,17.3c0.3,6.1,0.2,12.1,0,18.2c-0.1,4.6-1.9,8.7-5.3,11.7c-2.6,2.3-2.7,4.5-1.7,7.6c3.1,9.8,6,19.7,8.9,29.5
	c1.7,5.7,1.7,5.7-4.5,5.7c-2.5,0-5.1-0.2-7.6,0c-2.9,0.2-4.2-1.1-4.9-3.8c-2.3-8.6-4.8-17.2-7.3-25.8c-0.5-1.7-0.3-4.1-2.5-4.6
	c-2.6-0.6-5.4-0.6-8,0.1c-1.7,0.4-1.4,2.2-1.4,3.4c0,6.9,0,13.8,0,20.7c0,2.4,0,4.7,0,7.1c0,1.9-0.8,2.8-2.7,2.8
	c-3.5,0-7.1,0-10.6,0c-1.9,0-2.8-0.9-2.7-2.8c0-3.2,0-6.4,0-9.6C1149,378,1149,366.8,1149,355.7z M1165.2,338.7c0,3.9,0,7.7,0,11.6
	c0,1.4,0.2,2.9,1.9,3c3.9,0.2,7.8,0.6,11.5-0.8c2.9-1,4.9-3.2,5.2-6.3c0.5-5.2,0.7-10.4-0.1-15.6c-0.6-4-2.7-5.8-6.8-6.3
	c-2.8-0.3-5.7-0.1-8.6-0.2c-2.4-0.1-3.3,1.1-3.2,3.4C1165.3,331.3,1165.2,335,1165.2,338.7z"/>
<path class="st2" d="M1830.5,355.6c0-7.4-0.1-14.9,0-22.3c0.2-14.4,9.7-23.9,24.2-24.4c8-0.3,15,1.7,20.8,7.5c4,4,6.2,8.8,6.3,14.5
	c0,2.4,0,4.7,0,7.1c0.1,2.2-0.7,3.5-3.1,3.5c-3.5-0.1-7.1-0.1-10.6,0c-2.5,0.1-3.2-1.2-3.2-3.4c0.1-2.4,0.1-4.7-0.1-7.1
	c-0.3-4.5-3.1-7.4-7.6-7.9c-5.1-0.6-9.1,1.8-10.2,6.2c-0.4,1.4-0.4,3-0.4,4.5c0,14.7,0,29.4,0,44.1c0,0.7,0,1.4,0,2
	c0.2,3.5,1.6,6.3,4.8,7.7c3.4,1.5,6.9,1.4,10.1-0.7c2.1-1.4,3.3-3.3,3.3-5.9c0-4.9,0-9.8,0-14.7c0-2.3-1-3.4-3.3-3.3
	c-0.8,0-1.7-0.1-2.5,0c-2.1,0.1-3.2-0.8-3.1-2.9c0-2.7,0-5.4,0-8.1c0-2.2,1.1-3,3.2-2.9c6.6,0,13.2,0,19.8,0c2.1,0,3.1,0.9,3.1,3
	c-0.1,10.5,0.3,21-0.3,31.4c-0.4,7.5-5.2,12.7-11.6,16.2c-8,4.4-16.6,4.7-24.9,1.2c-9.2-3.9-14.4-10.9-14.4-21.2
	C1830.5,371.5,1830.5,363.6,1830.5,355.6C1830.5,355.6,1830.5,355.6,1830.5,355.6z"/>
<path class="st2" d="M1320.1,356.3c0,7.6-0.2,15.2,0.1,22.8c0.5,13.1-9.6,20.9-18.3,22.9c-8.6,1.9-16.8,1-24-4.5
	c-5.1-3.9-8.3-8.8-8.6-15.3c-0.2-4.9-0.2-9.8-0.3-14.7c0-11.1-0.1-22.3,0-33.4c0.1-12.4,5.4-20.5,16.4-23.8
	c11.9-3.6,23.2-0.8,30.7,8.5c2.9,3.7,4.2,8,4.1,12.7C1320.1,339.8,1320.1,348,1320.1,356.3z M1303.1,355.9c0-8.1,0.1-16.2,0-24.2
	c0-4.7-2.1-7.4-6.4-8.5c-6.3-1.7-11.7,2.2-11.8,8.7c-0.2,15.8-0.1,31.7,0,47.5c0,5.8,3.7,9.1,9.3,9.1c5.7-0.1,8.8-3.3,8.9-9.3
	C1303.2,371.4,1303.1,363.6,1303.1,355.9z"/>
<path class="st2" d="M1389,355.8c0-7.9,0.4-15.9-0.1-23.8c-0.7-12.7,10.3-21.2,19.7-22.7c10-1.5,19.2,0.3,26.2,8.4
	c3.1,3.6,5,7.6,5,12.4c0,17.2,0.2,34.4,0,51.6c-0.1,9.5-7.9,18-18.2,20.3c-8.6,1.9-16.8,1-24-4.6c-5.5-4.2-8.7-9.7-8.6-16.9
	C1389.1,372.3,1389,364,1389,355.8z M1422.8,355.7c0-8.1,0.1-16.2,0-24.2c0-4.6-1.9-7-5.9-8.3c-6.4-2-11.9,1.9-12.1,8.7
	c-0.2,5.6-0.1,11.1-0.1,16.7c0,9.9,0,19.9,0,29.8c0,3.6,0.8,6.7,4.1,8.7c5.7,3.4,14.5,0.2,14.1-7.6
	C1422.5,371.6,1422.8,363.7,1422.8,355.7z"/>
<path class="st2" d="M1508.8,355.7c0-13.5,0-27,0-40.5c0-5,0.1-5.1,5.1-5.1c12,0,24,0,36,0c4.7,0,4.7,0.1,4.7,4.9
	c0,1.7,0.1,3.4,0,5.1c-0.1,3.7-0.3,3.9-4.2,4c-6.9,0.1-13.9,0-20.8,0.1c-4.4,0-4.5,0.2-4.6,4.6c-0.1,5.2-0.1,10.5,0,15.7
	c0.1,4.3,0.1,4.4,4.7,4.4c4.4,0.1,8.8,0,13.2,0c3.6,0.1,3.9,0.3,3.9,3.7c0,12.7,1.2,9.9-9.5,10.2c-2.4,0.1-4.7,0-7.1,0
	c-5.1,0.1-5.1,0.1-5.1,5c0,8.6,0,17.2,0,25.8c0,8.8,0.9,7.8-7.9,7.8c-9.5,0-8.3,1.1-8.4-8.4C1508.7,380.7,1508.8,368.2,1508.8,355.7
	z"/>
<path class="st0" d="M1349.9,166.3c10.8,0,21.7,0,32.5,0c3.2,0,3.3,0.1,3.3,3.1c0,11.8,0,23.6,0,35.4c0,2.9-0.1,3-2.9,3
	c-22.1,0-44.2,0-66.3,0c-2.8,0-2.9-0.1-2.9-3.1c0-11.8,0-23.6,0-35.4c0-3,0.1-3,3.3-3.1C1327.9,166.3,1338.9,166.3,1349.9,166.3z
	 M1349.5,201.1c8.5,0,17,0,25.6,0c3.8,0,3.8-0.1,3.8-3.9c0-6.9,0-13.7,0-20.6c0-3.1-0.1-3.3-3.3-3.3c-17.3,0-34.6,0-52,0
	c-3,0-3.2,0.2-3.2,3.4c0,7,0,14,0,21c0,3.3,0.1,3.4,3.5,3.4C1332.4,201.1,1340.9,201.1,1349.5,201.1z"/>
<path class="st2" d="M1636.9,356.3c0,13,0,26,0,39c0,1.3,0,2.7-0.1,4c-0.1,1.4-0.9,2.1-2.3,2.2c-3.9,0-7.8,0-11.6,0
	c-1.7,0-2.3-1.1-2.4-2.6c0-1.2,0-2.4,0-3.5c0-26.3,0-52.7,0-79c0-1.2,0-2.4,0-3.5c0-1.9,1-2.7,2.9-2.7c3.5,0,7.1,0,10.6,0
	c1.9,0,2.8,0.8,2.8,2.7c0,1.4,0.1,2.7,0.1,4.1C1636.9,330,1636.9,343.1,1636.9,356.3z"/>
<path class="st0" d="M555.7,250.3c0,2.4,0,3.9,0,5.5c0,20,0,40.1,0,60.1c0,1-0.1,1.9,0,2.9c0.1,1.8-0.5,2.7-2.4,2.6
	c-0.6,0-1.3,0-1.9,0c-14.5,0-28.9,0-43.4,0c-5,0-4.3,0.3-4.8-4.3c-1.9-16.6,2-31.6,13.4-44.2C526.9,261.3,539.9,254.2,555.7,250.3z
	 M552.7,286.8c0-9.1,0-18.1,0-27.2c0-3.6-0.5-3.9-4-2.7c-8.9,3.2-17.1,7.7-24.3,13.9c-12.9,11.1-19.1,25.2-18,42.2
	c0.3,4.3,0.3,4.4,4.3,4.4c12.6,0,25.1,0,37.7,0c4.1,0,4.2-0.1,4.2-4.4C552.7,304.3,552.7,295.5,552.7,286.8z"/>
<path class="st0" d="M504.8,394.6c-0.1-1.1-0.2-2.2-0.2-3.3c0-18.6,0-37.3,0-55.9c0-4.4,0-4.4,4.5-4.4c13.5,0,27.1,0,40.6,0
	c4.1,0,4.1,0,4.2,3.8c0,18.9,0,37.9,0.1,56.8c0,2.4-0.6,3.5-3.1,3.5c-14.8-0.1-29.6-0.1-44.4-0.1
	C505.9,394.9,505.4,394.7,504.8,394.6z M550.9,364.7c0-8.4,0-16.8,0-25.3c0-3.9-0.2-4.1-4.1-4.1c-11.6-0.1-23.2-0.1-34.8,0
	c-3.9,0-4.1,0.2-4.1,4.1c0,16.5,0,33.1,0,49.6c0,3.8,0.3,4.1,4.1,4.1c11.6,0.1,23.2,0.1,34.8,0c3.8,0,4-0.2,4-4.1
	C550.9,380.9,550.9,372.8,550.9,364.7z"/>
<path class="st0" d="M571.8,250.4c16.5,4.3,30.4,12.1,41,25.2c10,12.5,12.7,27,11,42.7c-0.3,2.3-1.2,3.2-3.6,3.2
	c-15.3-0.1-30.5-0.1-45.8,0c-2.1,0-3.1-0.4-3.1-2.9c0.1-22.1,0.1-44.2,0.1-66.3C571.4,251.8,571.6,251.3,571.8,250.4z M574.7,256.9
	c-0.8,1.4-0.5,3.1-0.5,4.6c0,8.9,0,17.8,0,26.7c0,8.6,0,17.2,0,25.8c0,3.6,0.3,3.9,3.8,3.9c12.9,0.1,25.8,0.1,38.7,0
	c3.2,0,3.4-0.4,3.7-3.6c1.1-14.2-2.8-26.8-12.3-37.4c-8.4-9.4-18.9-15.5-30.6-19.7C576.6,256.9,575.7,256.4,574.7,256.9z"/>
<path class="st3" d="M40.4,542.6c-0.7,0-1.4,0-2,0c-9.9,0-8.6-0.3-11.3,8.1c-0.8,2.5-0.9,5.4-4.7,5.9c-7.5,0.9-8.7-0.2-6.4-7.3
	c5.3-16.5,10.7-32.9,16.1-49.3c0.7-2.1,0.7-4.9,3.1-5.7c3-1,6.3-0.9,9.4-0.1c2.4,0.6,2.4,3.1,3,5c4.2,12.3,8.3,24.6,12.4,36.9
	c1.8,5.4,3.6,10.8,5.4,16.2c1,2.9,0.2,4.1-3,4.4c-6.6,0.5-7.3,0.1-9.4-6c-0.3-0.9-0.6-1.7-0.8-2.6c-0.7-4-3.1-5.8-7.2-5.3
	C43.6,542.7,42,542.6,40.4,542.6C40.4,542.6,40.4,542.6,40.4,542.6z M33.4,530.4c3.8,1.2,6.9,0.9,10.1,0.7c1.5-0.1,2.7-1,2.3-2.6
	c-1.3-5.8-2.8-11.7-6.1-18.5C37.3,517.5,35.5,523.5,33.4,530.4z"/>
<path class="st0" d="M619.9,331.2c0.8,1.3,0.6,2.6,0.6,3.9c0,18.6,0,37.3,0,55.9c0,4.5,0.3,4.1-4.1,4.1c-13.5,0-27.1,0-40.6,0
	c-5.1,0-4.3-0.2-4.3-4.5c0-18.5,0-36.9,0-55.4c0-4.1,0-4.2,4.2-4.2c13.9,0,27.7,0,41.6,0C618.1,331,619.1,331.1,619.9,331.2z
	 M617.6,364.4c0-8.3,0-16.5,0-24.8c0-4.1-0.1-4.2-3.8-4.2c-11.8-0.1-23.5-0.1-35.3,0c-3.8,0-3.9,0.1-3.9,4.2c0,16.5,0,33.1,0,49.6
	c0,3.9,0.1,4,4.1,4c11.6,0.1,23.2,0.1,34.8,0c4,0,4.1-0.1,4.1-4.5C617.6,380.6,617.6,372.5,617.6,364.4z"/>
<path class="st3" d="M1096,524.6c0-8.6-0.1-17.3,0-25.9c0.1-4.7,0.3-5,5.2-5c6.8-0.1,13.6,0,20.4,0.1c6.7,0.1,11.1,3.7,13.5,9.7
	c2.5,6.4,2.4,12.9-0.3,19.3c-2.3,5.4-6.3,8.8-12.3,9.4c-3.8,0.4-7.7,0.7-11.5,0.9c-2.8,0.1-4.1,1.3-4.1,4.2c0,2.5,0,5,0,7.5
	c0,11.7,0,11.7-5.3,11.8c-5.6,0.1-5.6,0.1-5.6-12.1C1096,537.8,1096,531.2,1096,524.6C1096,524.6,1096,524.6,1096,524.6z
	 M1106.9,512.7c0,9.3,0.2,9.6,9.4,8.9c0.7,0,1.4-0.1,2-0.2c4.3-0.7,6.9-3.4,7.2-7.6c0.4-4.9-2.7-8.5-7.8-9.1
	C1107.8,503.5,1106.9,504.2,1106.9,512.7z"/>
<path class="st3" d="M953.4,513c0-5.1-0.1-10.1,0-15.1c0.1-3.9,0.8-4.3,5.2-4.3c4.3,0,5,0.3,5,4.5c0.1,17.7,0.1,35.5,0,53.2
	c0,1.7,0.4,4.1-1.7,4.7c-2.5,0.7-6,1.7-7.5-0.9c-1.9-3.1-3-1.5-4.7-0.3c-7.6,5.4-14.7,1.9-19-3.8c-6.1-8.1-6.3-26.2-0.6-34.4
	c4.8-6.8,11.7-8.5,19.1-4.7C950.3,512.4,951.1,513.4,953.4,513z M936.9,534.3c0,2.3,0,5.5,1.4,8.5c1.4,2.9,3.5,4.6,6.9,4.7
	c3.2,0,5.2-1.8,6.3-4.4c2.8-6.3,2.7-12.8,0.1-19.2c-1.1-2.7-3.2-4.3-6.3-4.4c-3.1,0-5.1,1.5-6.6,4
	C936.8,526.6,936.8,530,936.9,534.3z"/>
<path class="st3" d="M516.2,513.8c1.8-1.1,2.7-1.7,3.7-2.2c6.8-3.4,13.3-1.5,18.1,4.4c5.6,6.8,5.6,28.1-0.2,35.2
	c-5.4,6.6-11.5,8.1-19.1,3.7c-1.7-1-2.8-2.7-4.7,0.4c-1.6,2.5-5,1.6-7.5,0.8c-2.1-0.7-1.5-3.1-1.5-4.8c0-17.5-0.1-35,0-52.5
	c0-4.5,0.6-4.9,5.2-4.9c4.5,0,4.9,0.4,5.2,5C515.7,503.5,515,508.3,516.2,513.8z M515.4,533.7c0.2,2.8,0.1,5.8,1.3,8.5
	c1.4,3.1,3.5,5.3,7.2,5.2c3.8-0.1,5.8-2.5,6.8-5.7c1.8-5.5,1.7-11.2-0.1-16.7c-1.1-3.2-3.3-5.4-7-5.5c-3.7-0.1-5.8,2.2-7.1,5.3
	C515.4,527.6,515.5,530.6,515.4,533.7z"/>
<path class="st3" d="M380.5,513.5c0-5.2-0.1-10.1,0-15.1c0.1-4.2,0.7-4.6,4.8-4.6c4.2,0,5,0.4,5,4.5c0.1,18,0.1,35.9,0,53.9
	c0,1.8,0.1,3.7-2.3,4.3c-3.3,0.9-5.9-0.2-8.3-3.9c-0.7,0.5-1.4,1.1-2.1,1.6c-7.8,5.5-15.6,4.4-20.3-3.8c-6.2-10.8-6.2-22.3-0.4-33.3
	c3.9-7.5,12.1-9.2,19.4-5C377.3,512.6,378,513.6,380.5,513.5z M380.5,533.6c-0.1-3.2-0.6-6.4-1.8-9.3c-1.1-2.6-3-4.5-6.1-4.7
	c-3.3-0.2-5.9,1.3-7.1,4.2c-2.6,6.3-2.4,12.9-0.1,19.2c0.9,2.7,3.2,4.3,6.3,4.4c3.4,0.1,5.6-1.8,6.9-4.6
	C379.9,539.9,380.3,536.8,380.5,533.6z"/>
<path class="st3" d="M463.8,537.4c0.2,4.6-0.5,10.3,1,15.9c0.5,2-0.3,3.1-2.3,3.1c-1.8,0-4.6,0.6-5.3-0.3c-3.3-4.6-6-1.2-9,0.2
	c-6.7,3-13.9,0.5-16.9-5.7c-3.5-7-0.9-15.6,5.7-18.9c3.5-1.8,7.4-2.2,11.1-3.4c2.6-0.8,5.7-1.1,5.1-5c-0.4-3-3.7-4.5-7.6-3.8
	c-2,0.4-3.3,1.4-4.3,3.1c-0.8,1.4-1.9,1.9-3.4,1.6c-2-0.4-4.5,0-5.7-1.8c-1.5-2.2,0.4-4.3,1.5-6.2c1.8-3.1,4.6-5.1,8.1-5.8
	c1.6-0.3,3.2-0.5,4.7-0.6c12.3-0.6,17.1,3.9,17.4,16.3C463.8,529.5,463.8,532.9,463.8,537.4z M453.3,539.2c0-3.5-0.5-4-3.9-3.2
	c-2.2,0.5-4.4,1.2-6.3,2.3c-2.6,1.4-3.3,5.1-1.8,7.7c1.4,2.4,4.2,3.3,7.1,2.1C451.6,546.7,453.3,543.6,453.3,539.2z"/>
<path class="st3" d="M809.7,537.4c0.2,4.4-0.6,10.1,0.9,15.7c0.7,2.5-0.5,3.4-2.8,3.4c-1.8,0-4.6,0.5-5.3-0.5c-2.8-4-5-1.5-7.8-0.1
	c-7.2,3.7-14.8,1.1-17.9-5.7c-3.4-7.5-0.4-16,6.9-18.9c3.8-1.5,7.9-2.3,11.8-3.5c2.1-0.6,3.8-1.6,3.4-4.3c-0.4-2.4-1.8-3.6-4.1-3.9
	c-2.8-0.4-5.7-0.4-7.3,2.3c-2.4,4-5.5,1.9-8.4,1.3c-1.6-0.3-2-1.6-1.5-3.2c0.1-0.2,0.1-0.4,0.2-0.6c2.1-6.8,8.2-10.2,17.6-9.6
	c8.7,0.5,12.5,3.5,13.8,11.3c0.4,2.5,0.4,5,0.4,7.5C809.7,531.1,809.7,533.6,809.7,537.4z M798.8,535.6c-3.5,0-6,1-8.6,1.9
	c-2.6,1-4,2.8-3.9,5.7c0.1,2.2,1,4,3,4.9c2.6,1.1,4.9,0.3,6.9-1.5C799.7,543.7,799.4,540,798.8,535.6z"/>
<path class="st3" d="M1828.5,534.5c0.3,6.1-0.4,12.3,1.3,18.3c0.8,2.7-0.3,3.9-3.1,3.7c-1.6-0.1-4.1,0.4-4.6-0.4
	c-2.9-4.5-5.4-1.6-8.3-0.2c-6.8,3.4-14.5,1-17.6-5.3c-3.6-7.3-0.9-16,6.3-19.1c3.1-1.4,6.5-2,9.8-3c2.3-0.7,5.3-0.7,5.7-3.9
	c0.3-1.9-0.5-3.7-2.4-4.5c-2.9-1.1-6.3-1.6-8.2,1.1c-2.3,3.5-5,3.1-8.2,2.4c-2.3-0.5-2.9-1.8-2.3-4c1.8-7,8.2-10.5,18.1-9.8
	c8.8,0.6,12.7,3.9,13.3,11.6C1828.8,525.8,1828.5,530.2,1828.5,534.5z M1818.7,539.4c0.2-3.6-0.5-4.3-3.7-3.5
	c-2.2,0.5-4.4,1.1-6.4,2.1c-3.3,1.7-4,5.1-2.2,8c1.7,2.7,4.6,3.2,7.7,1.7C1817.6,545.9,1818.3,542.6,1818.7,539.4z"/>
<path class="st3" d="M1641.1,533.5c-0.3-4.5,0.6-8.9,2.7-13c3.6-6.9,9.1-10.6,16.9-10.6c7.9,0,13.4,3.8,16.8,10.7
	c4.3,8.7,4.1,17.6-0.1,26.3c-3.5,7.2-9.5,11.1-17.5,10.8c-8.3-0.3-14-4.9-17-12.6C1641.5,541.3,1641,537.5,1641.1,533.5z
	 M1651.7,533.4c0.1,3.2,0.1,6.4,1.7,9.3c3.5,6,10.9,6.4,14.3,0.4c3.4-6.1,3.4-12.8-0.1-18.9c-3.4-5.8-10.1-5.6-13.9,0.1
	C1651.9,527,1651.8,530.2,1651.7,533.4z"/>
<path class="st3" d="M254.7,533.1c0,6.2-1.4,11.4-4.5,16.1c-7.8,11.7-25,11.2-31.6-1.3c-5.1-9.7-5.1-19.8,0.5-29.3
	c7.1-11.9,23.8-12,31.3-0.4C253.5,522.9,254.9,528.1,254.7,533.1z M225.9,533.7c0,3.4,0.2,6.8,2.3,9.8c3.8,5.2,10,5.1,13.6-0.2
	c3.2-4.7,3.2-14.9-0.1-19.5c-3.7-5.2-9.9-5.2-13.6,0.1C226.1,526.9,225.8,530.3,225.9,533.7z"/>
<path class="st3" d="M1392,537.4c-3,0-5.9,0-8.9,0c-2.8,0-3.5,1.7-2.9,4.1c0.7,3.1,2.5,5.4,5.6,6.4c3.1,1,5.5-0.3,6.9-3
	c1.5-2.9,3.5-2.9,6.2-2.2c5.3,1.2,5.8,2,3.1,6.6c-6.2,10.9-22.8,11.5-29.1,0.6c-6.2-10.6-6-22,0.2-32.5c6.4-10.8,21.3-10.2,27.7,0.5
	c2.7,4.6,3.7,9.8,3.9,15.1c0.1,2.8-0.9,4.3-3.9,4.3c-3,0-5.9,0-8.9,0C1392,537.3,1392,537.4,1392,537.4z M1388.4,529.5
	c0.3,0,1.9-0.1,3.5-0.2c1.3-0.1,2-1,2-2.2c0.1-2.7-1-4.9-3.1-6.4c-2.2-1.6-4.7-1.7-7-0.2c-2.5,1.6-4,4-3.5,6.9
	c0.6,3.3,3.5,1.9,5.5,2.2C1386.2,529.6,1386.6,529.5,1388.4,529.5z"/>
<path class="st3" d="M655.1,537.4c-3,0-5.9,0-8.9,0c-2.8,0-3.5,1.6-2.8,4c0.9,3.3,2.8,5.8,6.2,6.6c3.1,0.8,5-1.3,6.7-3.5
	c1.7-2.3,8.6-2.5,10.1-0.4c1,1.3,0.1,2.6-0.4,3.8c-4.4,10.2-18.8,13-27.1,5.4c-1.7-1.6-3.1-3.3-4-5.5c-4.1-9.7-4.1-19.5,0.6-29
	c2.9-6,7.9-9.2,14.8-9.1c7.1,0.1,12,3.6,14.9,10c1.9,4.2,2.7,8.6,2.7,13.2c0,2.8-1,4.3-4,4.2c-3,0-5.9,0-8.9,0
	C655.1,537.3,655.1,537.4,655.1,537.4z M650.1,529.5C650.1,529.5,650.1,529.5,650.1,529.5c1.6-0.1,3.2,0,4.8-0.1
	c1.9,0,2.9-0.9,2.5-3c-0.5-2.5-1.5-4.9-3.8-6.1c-2.6-1.4-5.3-1.3-7.6,0.8c-1.9,1.8-3.3,4.1-2.5,6.6c0.9,2.9,3.9,1.3,5.9,1.7
	C649.6,529.6,649.9,529.5,650.1,529.5z"/>
<path class="st3" d="M1274.9,533.2c0.4,6.2-1.2,11.6-4.5,16.4c-8.1,11.6-25,10.6-31.6-2.1c-4.5-8.8-4.7-18-0.4-26.9
	c3.3-6.9,8.9-10.7,16.8-10.8c7.6-0.1,13,3.4,16.6,9.9C1274.2,524,1275.3,528.6,1274.9,533.2z M1246.2,532.7
	c-0.1,4.9,0.7,8.3,2.4,10.7c3.7,5.2,10.1,5.2,13.7,0c3.2-4.7,3.2-15-0.1-19.6c-3.6-5.2-10-5.2-13.6,0
	C1246.8,526.6,1246.1,529.7,1246.2,532.7z"/>
<path class="st3" d="M851.2,533.4c0-5.9,0-11.8,0-17.8c0-2-0.5-4.6,2.4-4.8c2.4-0.2,5.7-1.7,7,2c0.6,1.8,1.3,2.1,2.8,1
	c1.3-0.9,2.5-2,3.9-2.7c7.9-3.9,16-0.1,18.1,8.5c0.5,2,0.8,4,0.8,6.1c0.1,8.4,0.1,16.8,0,25.3c-0.1,5.2-0.6,5.6-5.3,5.6
	c-4.6,0-5-0.4-5.1-5.8c-0.1-6.4,0-12.7-0.1-19.1c0-2.3-0.1-4.6-0.5-6.8c-0.4-2.7-1.8-4.7-4.7-5.2c-3-0.5-5.3,0.7-7,3.2
	c-1.6,2.4-1.8,5.1-1.9,7.9c-0.1,6.8,0,13.7-0.1,20.5c-0.1,4.7-4.8,7.2-8.9,4.9c-1.7-1-1.5-2.7-1.5-4.2
	C851.2,545.7,851.2,539.6,851.2,533.4C851.2,533.4,851.2,533.4,851.2,533.4z"/>
<path class="st3" d="M1731.2,514.5c12.2-9.5,24.3-4.2,24.2,11.6c-0.1,8.6,0.2,17.3,0.1,25.9c-0.1,4.1-0.7,4.4-5,4.5
	c-4.6,0-5.3-0.4-5.3-4.8c-0.1-6.8,0-13.6-0.1-20.5c0-2.3-0.1-4.6-0.6-6.8c-0.5-2.6-2-4.6-4.9-4.9c-2.7-0.2-4.8,0.8-6.5,3
	c-1.6,2.1-1.8,4.6-1.9,7.1c-0.1,7-0.1,14.1-0.3,21.1c-0.1,5.1-4,7.4-8.6,5.3c-1.9-0.8-1.7-2.5-1.8-4c0-12.3,0-24.6,0-36.8
	c0-2-0.2-4.5,2.7-4.5c2.5,0,5.7-1.6,6.8,2.4C1730.2,513.8,1730.3,514.5,1731.2,514.5z"/>
<path class="st3" d="M1530.6,509.8c7.2,0.2,12.4,0.9,15.7,5.9c1.2,1.8,3.1,3.8,1.2,6.1c-1.4,1.7-7.2,2.1-8.7,0.4
	c-2.1-2.4-4.4-3.8-7.7-3.5c-2.1,0.2-4.3,0.5-4.9,2.9c-0.6,2.6,1.5,3.6,3.5,4.2c3,1.1,6.1,1.8,9.1,2.9c8.9,3.1,11.8,7.2,11.1,15.5
	c-0.6,7.1-5.4,11.6-13.5,13.1c-8.7,1.6-17-2.1-20.3-9.1c-1.9-3.9-1.5-4.6,2.4-5.7c3.3-0.9,5.9-1,7.9,2.7c1.8,3.5,5.5,3.7,9.1,2.9
	c2.2-0.5,3.8-1.9,3.8-4.2c0-2.1-1.5-3.1-3.4-3.8c-4.1-1.4-8.3-2.5-12.2-4.3c-6.2-2.7-9-8.6-7.7-15.1
	C1517.4,513.6,1523.1,509.7,1530.6,509.8z"/>
<path class="st3" d="M1458.8,509.8c5.8,0.2,10.7,0.8,13.8,5.1c1.5,2,4.1,4.3,1.7,7.1c-1.8,2.1-7.1,1.8-9.1-0.4
	c-2.2-2.4-4.8-3.3-7.9-2.9c-2.1,0.3-4.2,0.9-4.4,3.5c-0.1,2.3,1.8,2.9,3.6,3.5c3.7,1.3,7.4,2.2,11,3.6c7.1,2.7,10.1,7.1,9.7,13.9
	c-0.4,6.7-4.7,11.7-11.5,13.5c-8.9,2.4-17.7-0.4-21.8-7.1c-1.1-1.8-3.2-3.9-1.1-6.1c2.1-2.2,8.2-2,9.6,0.5c2.3,4,5.7,5,9.8,4.2
	c2.1-0.4,3.8-1.6,4.1-4c0.3-2.7-1.5-3.5-3.6-4.2c-3.5-1.1-7-2.1-10.4-3.4c-7.5-3-10.3-7.8-9.3-15.4c0.9-6.4,5.7-10.6,13.4-11.3
	C1457.5,509.9,1458.6,509.8,1458.8,509.8z"/>
<path class="st3" d="M1329.6,492.5c-0.1,0,1,0,2.2,0.2c2.3,0.4,4.6,0.8,4.4,4c-0.2,2.8-0.4,5.6-4.5,5.3c-2.6-0.2-4.5,0.9-4.8,3.7
	c-0.3,2.4-0.3,4.8,3,4.8c3.8,0,4.4,2.2,4.4,5.3c0,3-0.9,4.8-4.2,4.8c-3.2,0-3.5,2.3-3.5,4.7c0,8.6,0.1,17.3-0.1,25.9
	c-0.1,4.8-0.5,5.1-5,5.2c-4.8,0.1-5.4-0.4-5.5-5.4c-0.1-8.2,0-16.4,0-24.6c0-2.8,0-5.1-3.5-6.4c-3-1.1-3.1-8.2-0.2-9
	c4.2-1.2,3.5-4.1,3.9-6.9c0.5-4.1,1.3-8.2,5.5-10.3C1323.9,492.9,1326.1,492.4,1329.6,492.5z"/>
<path class="st3" d="M162.1,538c0-3.9,0-7.7,0-11.6c0-2.8-0.1-5-3.6-6.3c-3.2-1.2-3-8.1,0.3-9.3c2.8-1,3.2-2.6,3.3-5
	c0.1-2,0.2-4.1,0.8-6c2-6.5,11.9-9.9,17.6-6.2c1.7,1.1,1.7,2.6,1.3,4.2c-0.4,1.7-0.3,3.8-2.7,4.2c-0.9,0.1-1.8,0-2.7,0.1
	c-2.8,0.3-3.7,2.1-3.9,4.7c-0.1,2.5,1,3.8,3.5,3.9c3.7,0,3.7,2.5,3.7,5.2c0,2.4-0.1,4.7-3.3,4.8c-3.4,0.1-4,2.2-4,5
	c0,8.4,0.1,16.8,0,25.2c-0.1,5.2-3.6,7.4-8.5,5.5c-2-0.8-1.9-2.4-1.9-3.9C162.1,547.6,162.1,542.8,162.1,538
	C162.1,538,162.1,538,162.1,538z"/>
<path class="st3" d="M105.7,538.2c0-3.9,0-7.7,0-11.6c0-2.8-0.1-5-3.5-6.4c-3.2-1.3-2.9-8,0.4-9.3c2.8-1.1,3.1-2.9,3.1-5.2
	c0.1-1.8,0.1-3.7,0.5-5.4c1.8-6.8,12.3-10.5,18-6.5c1.7,1.2,1.1,2.8,0.9,4.3c-0.2,1.5-0.1,3.4-2.1,3.8c-1.1,0.2-2.3,0.1-3.4,0.3
	c-3.2,0.5-3.7,3-3.8,5.5c-0.1,2.6,1.7,2.9,3.7,2.9c3.5-0.1,4,2.1,4,4.9c0,2.8-0.3,5.1-3.8,5.1c-3.4,0-4,2.2-4,5
	c0.1,8.4,0.1,16.8,0,25.2c-0.1,5.4-0.8,5.9-5.8,5.8c-2.9-0.1-4.1-1.2-4.1-4.1C105.8,547.7,105.7,542.9,105.7,538.2
	C105.7,538.2,105.7,538.2,105.7,538.2z"/>
<path class="st3" d="M1176.7,533.3c0-5.4,0-10.9,0-16.3c0.1-6.5,3.9-8.7,9.5-5c1.8,1.2,2.5,1.4,3.8,0c1-1,2.1-1.7,3.5-1.9
	c2.7-0.3,5.5-0.5,7.5,2c0.8,1-1,8-2.1,9c-1,1-2.1,0.2-3.2,0.2c-4.7-0.2-5.9,0.7-7.4,5.2c-1.3,4.2-0.9,8.5-1,12.8
	c-0.1,4.3-0.2,8.6,0,12.9c0.1,3.9-2.1,4.4-5.2,4.3c-3,0-5.5-0.2-5.4-4.2C1176.8,546,1176.7,539.7,1176.7,533.3
	C1176.7,533.3,1176.7,533.3,1176.7,533.3z"/>
<path class="st3" d="M294.4,533.8c0-5.9-0.1-11.8,0-17.7c0-1.9-0.8-4.5,1.9-5.2c2.3-0.6,5.4-1.5,7,0.9c1.7,2.4,2.6,1.6,4,0.1
	c1.2-1.2,2.6-1.8,4.3-1.9c2.5-0.1,5.1-0.3,6.8,2.1c0.7,1-1.1,8.1-2.2,9c-0.8,0.6-1.7,0.3-2.6,0.3c-5.9-0.1-7.4,1.1-8.2,7.1
	c-1,7.4-1,14.9-1,22.4c0,5.1-0.7,5.5-5.4,5.5c-3.1,0-4.6-1.1-4.5-4.3C294.5,546.1,294.4,540,294.4,533.8
	C294.4,533.8,294.4,533.8,294.4,533.8z"/>
<path class="st3" d="M582.8,524.7c0-8.7-0.1-17.3,0-26c0.1-4.4,4.9-6.9,8.5-4.5c0.5,0.3,0.9,1,1.1,1.6c0.2,1.1,0.3,2.3,0.3,3.4
	c0,17.3,0.1,34.6,0,51.9c0,5-0.8,5.4-5.5,5.4c-3.2,0-4.4-1.4-4.4-4.5C582.9,542.9,582.8,533.8,582.8,524.7z"/>
<path class="st3" d="M1880.7,525.4c0,8.7,0.1,17.3,0,26c-0.1,4.5-4.6,7-8.4,4.7c-1.9-1.1-1.5-3.2-1.5-4.9c0-10.9,0-21.9,0-32.8
	c0-6.6-0.1-13.2,0.1-19.8c0.1-4.3,0.6-4.7,4.7-4.8c4.5-0.1,5.1,0.4,5.2,5C1880.8,507.6,1880.7,516.5,1880.7,525.4z"/>
<path class="st3" d="M1590.9,533.5c0-6.2-0.1-12.3,0-18.5c0.1-4,0.7-4.4,5-4.5c4.4,0,5.2,0.4,5.3,4.2c0.1,12.5,0.1,25.1,0,37.6
	c0,3.7-0.9,4.2-5.4,4.1c-4.3-0.1-4.9-0.4-5-4.6C1590.8,545.8,1590.9,539.7,1590.9,533.5z"/>
<path class="st3" d="M1601.3,499.6c-0.1,4.8-0.7,5.4-5.5,5.3c-4.5-0.1-5-0.7-4.9-5.9c0.1-4.8,0.7-5.3,5.5-5.2
	C1600.9,493.8,1601.4,494.4,1601.3,499.6z"/>
<path class="st4" d="M316,396.4c0.4-2,1.7-3.1,2.6-4.3c75.1-96,150.2-192.1,225.4-288.1c5.3-6.7,5.3-6.7,10.6-0.2
	c79.6,95.9,159.1,191.9,238.7,287.8c1.5,1.8,3,3.7,4.6,5.6c-1.7,1.6-3.5,1-5.2,1c-4.1,0-8.6,1.2-12.3-0.5c-3.7-1.6-5.6-5.9-8.2-9.1
	c-63-76.8-125.9-153.7-188.8-230.5c-1.3-1.6-2.6-3.2-4-4.8c-0.8-0.9-1.6-0.9-2.4,0c-0.6,0.7-1.2,1.5-1.8,2.2
	c-63.3,78.8-126.7,157.5-189.9,236.4c-2.9,3.6-5.7,5.1-10.4,5.1c-17.8-0.3-35.7-0.1-53.5-0.1C319.7,397,317.9,397.4,316,396.4z"/>
<path class="st4" d="M557,27c5,4.8,286.1,362.2,287.6,365.5c-1,1.1-2.3,0.8-3.5,0.8c-8.3,0-16.6-0.1-24.8,0.1
	c-3.1,0.1-5-1.2-6.8-3.5c-20-24.8-40.1-49.5-60.2-74.2c-58.8-72.4-117.6-144.9-176.4-217.3c-6.2-7.7-12.4-15.3-18.7-23
	c-2.7-3.3-2.8-3.4-5.5,0c-17.3,22.1-34.5,44.2-51.8,66.2c-64.1,82-128.2,164.1-192.2,246.2c-2.7,3.5-5.4,5.1-9.9,4.9
	c-6.8-0.4-13.7-0.1-20.5-0.1c-0.6,0-1.3,0.1-2.1-1.2C366.9,270.2,461.8,148.8,557,27z"/>
<path class="st4" d="M665,118.3c2-0.9,3.7-0.5,5.4-0.5c22.4,0,44.9,0,67.3,0c1.1,0,2.2,0,3.3,0c4.2-0.1,4.3-0.1,4.3-4.2
	c0-8.1,0-16.2,0-24.3c0-6.1-0.3-5.8,5.7-5.8c10.5,0,21,0,31.5,0c4,0,4,0.1,4.1,4c0,11.9,0,23.9,0,35.8c0,1.3,0,2.5,0.1,3.8
	c0.1,1.3,0.8,2,2.1,2c1.4,0,2.9,0.1,4.3,0.1c23.2,0,46.5,0.1,69.7,0.1c3.1,0,5.2,0.8,7.3,3.4c10.2,13,20.7,25.8,31.1,38.7
	c2.7,3.4,2.7,3.4,0.4,6.9c-28.9,42.5-57.7,85.1-86.6,127.6c-0.4,0.5-0.7,1-1.1,1.6c-1.2,1.9-2.3,1.8-3.6,0c-3.5-4.6-7-9.1-10.5-13.6
	c-44-57.1-88.1-114.1-132.1-171.2C666.7,121.3,665.5,120.2,665,118.3z"/>
<path class="st4" d="M1072.1,391.5c-1.7,0.1-3.5,0.3-5.2,0.3c-10.7,0-21.3-0.1-32,0.1c-3.6,0.1-6.1-0.9-8.4-3.9
	c-16.6-21.2-33.4-42.2-50.1-63.2c-23.8-29.9-47.6-59.8-71.3-89.7c-1.2-1.5-2.2-3.1-3.8-4.1c-1.9,1.2-2.7,3-3.7,4.5
	c-21.3,30.8-42.5,61.5-63.8,92.3c-3.6,5.2-3.2,5.6-7.3,0.4c-0.7-0.9-1.6-1.6-1.8-2.7c1.9-2.9,3.8-5.9,5.8-8.8
	c26.7-40,53.5-79.9,80.2-119.8c0.8-1.3,1.4-2.8,3-3.4c2.1,1.5,3.2,3.4,4.6,5.1c45.1,56.4,90.3,112.9,135.4,169.3
	C1059.8,375.7,1066.3,383.3,1072.1,391.5z"/>
<path class="st5" d="M908.7,327.5c0-4.5,0-8.9,0-13.4c0-2,0.7-3,2.7-2.9c5.6,0,11.1,0,16.7,0c2,0,2.8,0.9,2.8,2.9
	c-0.1,8.9,0,17.8,0,26.7c0,2-0.7,2.9-2.8,2.9c-5.6,0-11.1,0-16.7,0c-2,0-2.9-0.8-2.8-2.9C908.8,336.4,908.7,331.9,908.7,327.5z"/>
<path class="st5" d="M894.7,327.3c0,4.3-0.1,8.6,0,12.9c0.1,2.5-1,3.4-3.4,3.4c-5.3-0.1-10.5-0.1-15.8,0c-2.2,0-3.1-0.9-3.1-3.1
	c0.1-8.8,0.1-17.5,0-26.3c0-2,0.9-2.9,2.9-2.9c5.4,0,10.8,0,16.2,0c2.2,0,3.2,0.9,3.1,3.1C894.6,318.7,894.7,323,894.7,327.3z"/>
<path class="st5" d="M919.7,301.1c-2.5,0-5.1-0.1-7.6,0c-2.5,0.1-3.3-1-3.3-3.4c0.1-6.7,0-13.3,0-20c0-3.5,0.2-3.5,3.9-3.7
	c3.1-0.2,5.4,0.6,7.3,3.2c2.6,3.6,5.4,7,8.5,10.3c3.5,3.7,1.9,8.1,1.9,12.2c0,1.2-1.2,1.3-2.2,1.3
	C925.4,301.1,922.6,301.1,919.7,301.1C919.7,301.1,919.7,301.1,919.7,301.1z"/>
<path class="st5" d="M895.6,287.8c0,3.3-0.1,6.7,0,10c0.1,2.3-0.7,3.5-3.2,3.4c-5.2-0.1-10.5-0.1-15.7,0c-1.9,0-2.9-0.7-3-2.7
	c-0.1-4.6-0.2-9,3.7-12.7c3.1-2.9,5.5-6.5,8.3-9.8c1.5-1.7,6.9-2.6,8.8-1.6c1.2,0.7,1,1.8,1.1,2.9
	C895.6,280.8,895.6,284.3,895.6,287.8z"/>
<path class="st4" d="M207.3,181.4c0-1.6,1.2-2.5,2.1-3.6c11.6-14.1,23.3-28.2,34.9-42.4c1.9-2.3,3.9-3.2,6.9-3.2
	c20.9,0.1,41.7,0,62.6,0c1,0,1.9,0,2.9,0c4-0.1,4.1-0.1,4.1-4c0.1-11.6,0-23.2,0-34.9c0-1.3,0-2.5,0.1-3.8c0-1.5,0.8-2.3,2.4-2.3
	c1.1,0,2.2,0,3.3-0.1c9.6,0,19.1,0,28.7,0c7,0,6.3-0.6,6.3,6.5c0,7.6,0,15.3,0,22.9c0,4.4,0.1,4.5,4.6,4.5c23.6,0,47.1,0,70.7,0.1
	c2.1,0,5.2-1.1,6.2,0.9c1.1,2.1-1.7,3.8-3,5.5c-46.2,61.2-92.4,122.5-138.7,183.6c-0.9,1.3-1.7,2.7-3.1,3.6
	c-0.9-1.1-1.8-2.2-2.6-3.3c-19.4-28.6-38.8-57.1-58.2-85.7C227.4,210.8,217.3,196.1,207.3,181.4z"/>
<path class="st4" d="M291.5,324.5c-0.9,2.4-2.8,4.2-4.3,6.3c-1,1.5-2,1.2-3-0.1c-0.8-1.2-1.6-2.3-2.5-3.5c-20.7-30-41.4-60-62.1-90
	c-1-1.4-1.8-3-3.3-4.1c-1.9,0.5-2.6,2.2-3.7,3.5c-33.9,42.6-67.8,85.2-101.7,127.8c-6.5,8.2-13.1,16.4-19.6,24.7
	c-1.3,1.7-2.7,2.9-5.1,2.9c-12.6-0.1-25.2-0.1-37.7-0.1c-0.5,0-0.9-0.1-1.4-0.2c2.6-4.4,6.1-8.1,9.3-12.1
	c47.9-59.9,95.8-119.9,143.8-179.8c1.2-1.4,2-3.3,3.9-4c1.4,0.9,2.1,2.4,3,3.7c26.9,40,53.8,80.1,80.7,120.1
	C288.9,321.2,290.2,322.8,291.5,324.5z"/>
<path class="st5" d="M208.5,328.3c0,4.3-0.1,8.6,0,12.8c0,2.2-0.8,3.1-3.1,3.1c-5.4-0.1-10.8-0.1-16.2,0c-2,0-2.9-0.8-2.9-2.8
	c0-8.7,0-17.4,0-26.2c0-2,0.8-2.9,2.8-2.9c5.4,0,10.8,0,16.2,0c2.2,0,3.1,0.9,3.1,3.1C208.5,319.7,208.5,324,208.5,328.3z"/>
<path class="st5" d="M244.5,328.5c0,4.3,0,8.6,0,12.8c0,2-0.7,2.9-2.8,2.9c-5.6-0.1-11.1-0.1-16.7,0c-2.1,0-2.7-1.1-2.7-3
	c0-8.6,0-17.1,0-25.7c0-2.5,1.2-3.3,3.5-3.2c4.9,0.1,9.8,0,14.8,0c3.6,0.1,3.8,0.2,3.9,3.8C244.6,320.2,244.6,324.3,244.5,328.5
	C244.6,328.5,244.5,328.5,244.5,328.5z"/>
<path class="st5" d="M208.4,288.9c0,3.5,0,7,0,10.5c0,2-0.9,2.8-2.9,2.8c-5.4,0-10.8,0-16.2,0c-1.8,0-2.5-0.9-2.6-2.6
	c-0.2-4.7-0.2-9,3.7-12.7c2.9-2.7,5.1-6.1,7.6-9.1c1.8-2.1,6.6-3.2,9.1-2.2c1.3,0.6,1.1,1.8,1.2,2.8c0,0.3,0,0.6,0,1
	C208.4,282.6,208.4,285.7,208.4,288.9C208.4,288.9,208.4,288.9,208.4,288.9z"/>
<path class="st5" d="M221.6,288.6c0-3.3,0.1-6.7,0-10c0-2.1,0.6-3.1,3-3.3c3.4-0.2,6.1,0.4,8.2,3.5c2.6,3.8,5.8,7.1,8.7,10.7
	c2.8,3.5,1.4,7.6,1.3,11.5c0,1.1-1.4,1.1-2.3,1.2c-5.4,0-10.8,0-16.2,0c-1.8,0-2.6-0.8-2.6-2.6C221.6,296,221.6,292.3,221.6,288.6
	C221.6,288.6,221.6,288.6,221.6,288.6z"/>
<path class="st4" d="M1604.9,175.8c0-28.6,0-57.2,0-85.8c0-1,0-1.9,0-2.9c0.1-2.9,0.2-3,3-3.1c0.4,0,0.8,0,1.2,0
	c16.1,0,32.2-0.1,48.2,0.1c7,0,14,0.9,20.7,3c17.5,5.4,27.2,17.7,28.1,36c0.6,11.3,0.4,22.5,0.1,33.8c-0.2,11.1-5.2,20.2-13.4,27.3
	c-3.1,2.7-3.4,5.1-2.3,8.8c7.2,23.2,14.1,46.5,21.1,69.8c1.4,4.8,1.4,4.8-3.4,4.8c-8.4,0-16.8,0-25.2,0c-5.5,0-5,0.4-6.4-4.7
	c-5.7-19.8-11.3-39.6-16.9-59.4c-0.2-0.7-0.5-1.3-0.6-2c-0.3-2.3-1.5-3.2-3.9-3.2c-4.9,0.2-9.9,0-14.8,0.1c-3.3,0-3.4,0.1-3.4,3.6
	c0,11.3,0,22.5,0,33.8c0,9.1,0,18.1,0,27.2c0,4.6,0,4.7-4.4,4.7c-7.8,0-15.7,0-23.5,0c-4.3,0-4.3,0-4.3-4.4
	C1604.8,234,1604.9,204.9,1604.9,175.8z M1675.3,141.4c-0.1,0-0.1,0-0.2,0c0-4.9,0.3-9.9-0.1-14.8c-0.6-7.9-4.7-12.4-12.5-13.5
	c-7.8-1.2-15.6-0.5-23.5-0.5c-1.4,0-2,0.7-2,2.1c0,1.1,0,2.2,0,3.3c0,15.9,0,31.9,0,47.8c0,0.4,0,0.8,0,1.2c0,4.2,0,4.2,4,4.2
	c4.8,0,9.6,0.1,14.4,0c1.8,0,3.6-0.2,5.3-0.5c8.8-1.7,14.7-7.8,14.5-17.2C1675.2,149.3,1675.3,145.3,1675.3,141.4z"/>
<path class="st4" d="M1252,267.5c-4.3,0-8.5,0-12.8,0c-3.5,0-3.6,0-4.3-3.5c-2.1-11.3-4.2-22.7-6.3-34c-0.1-0.5-0.2-1.1-0.3-1.6
	c-0.2-2.2-1.4-3-3.6-2.9c-6.7,0.1-13.5,0-20.2,0c-2.3,0-4.7,0-7,0c-3.6,0.1-3.6,0.1-4.2,3.6c-1.5,7.8-2.9,15.7-4.3,23.5
	c-0.7,4.1-1.6,8.1-2.2,12.2c-0.3,2-1.1,2.8-3.2,2.8c-9.3-0.1-18.7,0-28,0c-2.8,0-2.9-0.2-2.3-3.3c2.1-10.9,4.2-21.8,6.4-32.8
	c9.3-47,18.5-94.1,27.8-141.1c1.4-7.3-0.1-6.4,7.6-6.4c11.4,0,22.8,0,34.2,0c4.2,0,4.2,0,5,4.2c10.6,54.7,21.3,109.5,31.9,164.2
	c0.8,4,1.6,8.1,2.3,12.1c0.5,2.9,0.5,3-2.6,3C1261.3,267.6,1256.6,267.5,1252,267.5z M1211.2,128c-0.2,0-0.4,0-0.6,0
	c-0.7,4.2-1.4,8.3-2.1,12.5c-3,18.1-6.1,36.2-9.1,54.3c-0.5,3.3-0.5,3.4,3.1,3.4c5.6,0,11.2,0,16.9,0c3.6,0,3.6-0.1,3-3.8
	c-2.6-16-5.3-31.9-7.9-47.9C1213.4,140.4,1212.3,134.2,1211.2,128z"/>
<path class="st4" d="M1443,175.4c0-28.3,0-56.6,0-84.9c0-1,0-1.9,0-2.9c0.1-3.6,0.1-3.6,3.7-3.6c16.2,0,32.4-0.1,48.6,0.1
	c8.6,0.1,17,1.6,24.7,5.5c15.7,7.9,24.4,20.4,24.4,38.4c0,8.2-0.2,16.5,0,24.7c0.3,14-5.6,24.9-16.1,33.7
	c-8.2,6.9-17.8,10.7-28.6,11.6c-6.7,0.6-13.5,0.3-20.2,0.4c-4.5,0.1-4.6,0-4.6,4.5c0,19.8,0,39.6,0,59.3c0,5.5,0.6,5.4-5.3,5.4
	c-7.6,0-15.1,0-22.7,0c-4.2,0-4.2,0-4.2-4.4C1443,233.9,1443,204.6,1443,175.4z M1475.2,141.6
	C1475.2,141.6,1475.2,141.6,1475.2,141.6c0,8.8,0,17.6,0,26.3c0,3,0.1,3,3,3.1c3.4,0.1,6.9,0,10.3,0c3.7,0,7.4,0.2,11.1-0.7
	c9.8-2.3,13.9-9.8,13.7-16.6c-0.3-8.4-0.1-16.7-0.1-25.1c0-3.1-0.6-6-2.3-8.6c-3.1-4.9-7.8-7.3-13.5-7.5c-6.2-0.2-12.3-0.2-18.5-0.1
	c-3.7,0-3.8,0.1-3.8,4C1475.2,124.9,1475.2,133.3,1475.2,141.6z"/>
<path class="st4" d="M1772.6,175.4c0-15.1,0-30.2,0-45.3c0-22.7,11.2-38.6,32.9-45.2c22.4-6.8,42.4-2.4,59,14.7
	c7,7.2,10.6,16,10.7,26c0.1,33.5,0.1,67,0,100.6c0,10.2-3.8,19-10.9,26.4c-10.5,10.9-23.4,16.6-38.6,16.9
	c-6.9,0.2-13.7-0.5-20.3-2.6c-9.6-3-17.5-8.6-23.9-16.2c-6.3-7.3-8.9-15.9-8.9-25.5C1772.6,208.6,1772.6,192,1772.6,175.4
	C1772.6,175.4,1772.6,175.4,1772.6,175.4z M1841.4,175.6c0-16.4,0-32.7,0-49.1c0-4.4-1.3-8-4.4-11.1c-5.7-5.8-14.7-7.6-22.5-4.3
	c-7.4,3.1-10.8,8.6-10.8,17.6c0,31.2,0,62.4,0,93.6c0,1.4,0,2.8,0.1,4.1c0.3,2.8,1.1,5.4,3,7.5c5.3,6.1,11.9,8.6,19.9,7.2
	c8.8-1.6,14.6-8.8,14.6-17.7C1841.5,207.5,1841.4,191.6,1841.4,175.6z"/>
<path class="st4" d="M1349.5,201.1c-8.5,0-17,0-25.6,0c-3.5,0-3.5-0.1-3.5-3.4c0-7,0-14,0-21c0-3.1,0.2-3.4,3.2-3.4
	c17.3,0,34.6,0,52,0c3.1,0,3.3,0.2,3.3,3.3c0,6.9,0,13.7,0,20.6c0,3.9,0,3.9-3.8,3.9C1366.5,201.1,1358,201.1,1349.5,201.1z"/>
<path class="st1" d="M552.7,286.8c0,8.8,0,17.5,0,26.3c0,4.3-0.1,4.4-4.2,4.4c-12.6,0-25.1,0-37.7,0c-4.1,0-4.1-0.1-4.3-4.4
	c-1.1-17.1,5.1-31.1,18-42.2c7.2-6.2,15.4-10.7,24.3-13.9c3.5-1.2,3.9-0.9,4,2.7C552.7,268.6,552.7,277.7,552.7,286.8z"/>
<path class="st1" d="M550.9,364.7c0,8.1,0,16.2,0,24.3c0,3.9-0.2,4.1-4,4.1c-11.6,0.1-23.2,0.1-34.8,0c-3.8,0-4.1-0.3-4.1-4.1
	c-0.1-16.5-0.1-33.1,0-49.6c0-3.9,0.2-4.1,4.1-4.1c11.6-0.1,23.2-0.1,34.8,0c3.9,0,4,0.2,4.1,4.1
	C550.9,347.9,550.9,356.3,550.9,364.7z"/>
<path class="st1" d="M574.7,256.9c1-0.5,1.9,0,2.8,0.3c11.7,4.2,22.2,10.3,30.6,19.7c9.5,10.7,13.4,23.3,12.3,37.4
	c-0.3,3.3-0.5,3.6-3.7,3.6c-12.9,0.1-25.8,0.1-38.7,0c-3.5,0-3.8-0.3-3.8-3.9c-0.1-8.6,0-17.2,0-25.8c0-8.9,0-17.8,0-26.7
	C574.2,260,573.8,258.4,574.7,256.9z"/>
<path class="st1" d="M617.6,364.4c0,8.1,0,16.2,0,24.3c0,4.3-0.1,4.4-4.1,4.5c-11.6,0.1-23.2,0.1-34.8,0c-4,0-4.1-0.1-4.1-4
	c0-16.5,0-33.1,0-49.6c0-4,0.1-4.2,3.9-4.2c11.8-0.1,23.5-0.1,35.3,0c3.8,0,3.8,0.1,3.8,4.2C617.6,347.9,617.6,356.1,617.6,364.4z"
	/>
<path class="st0" d="M1675.3,141.4c0,4-0.1,8,0,12c0.2,9.4-5.7,15.6-14.5,17.2c-1.7,0.3-3.5,0.5-5.3,0.5c-4.8,0.1-9.6,0-14.4,0
	c-4,0-4-0.1-4-4.2c0-0.4,0-0.8,0-1.2c0-15.9,0-31.9,0-47.8c0-1.1,0-2.2,0-3.3c0-1.3,0.6-2.1,2-2.1c7.8,0,15.7-0.7,23.5,0.5
	c7.8,1.2,11.9,5.7,12.5,13.5c0.4,4.9,0.1,9.9,0.1,14.8C1675.2,141.4,1675.3,141.4,1675.3,141.4z M1644.1,141.6c0,6.6,0,13.2,0,19.8
	c0,1.2-0.3,2.6,1.7,2.6c4.5-0.1,9.1,0.2,13.6-0.2c5.5-0.5,8.9-4.6,8.9-10c0-8.4,0-16.7,0-25.1c0-6.5-2.3-8.9-8.9-9.3
	c-4.2-0.2-8.5,0-12.8-0.2c-2.1-0.1-2.5,0.8-2.5,2.7C1644.1,128.4,1644.1,135,1644.1,141.6z"/>
<path class="st0" d="M1211.2,128c1.1,6.2,2.2,12.4,3.2,18.6c2.7,15.9,5.3,31.9,7.9,47.9c0.6,3.8,0.6,3.8-3,3.8c-5.6,0-11.2,0-16.9,0
	c-3.5,0-3.6-0.1-3.1-3.4c3-18.1,6-36.2,9.1-54.3c0.7-4.2,1.4-8.3,2.1-12.5C1210.8,128,1211,128,1211.2,128z M1210.7,170.6
	c-1.1,6.7-2.2,13.5-3.4,20.6c2.6,0.2,4.8,0.4,7.4-0.1C1213.7,184.1,1212.8,177.3,1210.7,170.6z"/>
<path class="st0" d="M1475.2,141.6c0-8.4,0-16.7,0-25.1c0-3.9,0.1-4,3.8-4c6.2,0,12.3-0.1,18.5,0.1c5.7,0.2,10.3,2.5,13.5,7.5
	c1.6,2.6,2.3,5.5,2.3,8.6c0,8.4-0.2,16.7,0.1,25.1c0.2,6.8-3.9,14.3-13.7,16.6c-3.7,0.8-7.4,0.6-11.1,0.7c-3.4,0-6.9,0.1-10.3,0
	c-2.9-0.1-3-0.2-3-3.1C1475.2,159.2,1475.2,150.4,1475.2,141.6C1475.2,141.6,1475.2,141.6,1475.2,141.6z M1482,141.6
	c0,6.6,0.1,13.2,0,19.8c0,1.9,0.6,2.7,2.6,2.6c4-0.1,8,0.1,11.9-0.2c6.1-0.4,9.8-4.4,9.8-10.5c0.1-7.8,0-15.7,0-23.5
	c0-7.1-3.1-10.3-10.2-10.6c-3.7-0.2-7.4-0.1-11.1-0.1c-2.9,0-2.9,0.1-2.9,3C1481.9,128.7,1482,135.1,1482,141.6z"/>
<path class="st0" d="M1841.4,175.6c0,15.9,0,31.9,0,47.8c0,8.9-5.9,16.1-14.6,17.7c-8,1.5-14.6-1.1-19.9-7.2c-1.9-2.2-2.7-4.8-3-7.5
	c-0.1-1.4-0.1-2.7-0.1-4.1c0-31.2,0-62.4,0-93.6c0-9,3.4-14.6,10.8-17.6c7.8-3.2,16.8-1.5,22.5,4.3c3.1,3.1,4.4,6.8,4.4,11.1
	C1841.4,142.9,1841.4,159.3,1841.4,175.6z M1810.9,175.3c0,16.2,0,32.4,0,48.6c0,4.9,1.9,7.6,6.4,9.4c3.5,1.4,7,1.4,10.5,0.2
	c3.7-1.4,6.6-4.1,6.6-9.3c-0.1-32.6,0-65.1-0.1-97.7c0-5.1-2.9-8.5-7.9-9.6c-1.9-0.4-3.8-0.5-5.7-0.3c-6.5,0.7-9.8,4.3-9.8,10.8
	C1810.9,143.5,1810.9,159.4,1810.9,175.3z"/>
<path class="st6" d="M895.6,287.8c0-3.5,0-7,0-10.5c0-1.1,0.2-2.3-1.1-2.9c-1.9-1-7.3-0.2-8.8,1.6c-2.8,3.2-5.2,6.9-8.3,9.8
	c-3.9,3.6-3.8,8-3.7,12.7c0.1,2.1,1,2.7,3,2.7c5.2,0,10.5-0.1,15.7,0c2.6,0.1,3.3-1.1,3.2-3.4C895.5,294.4,895.6,291.1,895.6,287.8z
	"/>
<path class="st6" d="M928.1,311.2c-5.6,0-11.1,0-16.7,0c-2,0-2.8,1-2.7,2.9c0.1,4.5,0,8.9,0,13.4c0,4.5,0.1,8.9,0,13.4
	c0,2.1,0.8,2.9,2.8,2.9c5.6,0,11.1,0,16.7,0c2,0,2.8-1,2.8-2.9c0-8.9-0.1-17.8,0-26.7C931,312,930.1,311.2,928.1,311.2z"/>
<path class="st6" d="M912.8,274.1c-3.7,0.2-3.9,0.2-3.9,3.7c-0.1,6.7,0,13.3,0,20c0,2.4,0.8,3.5,3.3,3.4c2.5-0.1,5.1,0,7.6,0v0
	c2.9,0,5.7,0,8.6,0c1,0,2.2-0.1,2.2-1.3c0-4.1,1.5-8.5-1.9-12.2c-3-3.2-5.9-6.7-8.5-10.3C918.2,274.6,915.8,273.8,912.8,274.1z"/>
<path class="st6" d="M894.7,327.3c0-4.3,0-8.6,0-12.9c0-2.2-0.9-3.2-3.1-3.1c-5.4,0.1-10.8,0-16.2,0c-2,0-2.9,0.8-2.9,2.9
	c0,8.8,0,17.5,0,26.3c0,2.2,0.9,3.2,3.1,3.1c5.3-0.1,10.5-0.1,15.8,0c2.4,0,3.5-0.9,3.4-3.4C894.6,335.9,894.7,331.6,894.7,327.3z"
	/>
<path class="st6" d="M918.3,263.9l-1.9-2.4L918.3,263.9c-0.8-1.9-2-3.1-3-4.5c-4-5.3-8.1-10.6-12.2-15.9c-0.9-1.1-1.8-2.7-3.2-0.5
	c-4.5,6.9-9.1,13.8-14.1,21.4h0.2l1-1.7l-1,1.7h32.5C918.4,264.2,918.3,264.1,918.3,263.9z"/>
<path class="st6" d="M906.5,182.4c-27.9,40.5-55.9,81-83.7,121.5c-2.4,3.4-7,6.7-6.1,10.7c0.8,3.8,4.8,7,7.4,10.4
	c0.1,0.1,0.3,0.2,0.4,0.3c0.2,1.2,1.1,1.9,1.8,2.7c4.2,5.2,3.7,4.8,7.3-0.4c21.3-30.8,42.5-61.6,63.8-92.3c1.1-1.5,1.8-3.3,3.7-4.5
	c1.6,1,2.6,2.7,3.8,4.1c23.8,29.9,47.6,59.8,71.3,89.7c16.7,21.1,33.6,42,50.1,63.2c2.4,3,4.8,4,8.4,3.9c10.7-0.2,21.3,0,32-0.1
	c1.7,0,3.5-0.2,5.2-0.3c3.7,0.6,7.4,0.3,12.1,0.2c-58.5-71.6-116.4-142.4-174.3-213.2C908.1,179.6,907.4,181.1,906.5,182.4z"/>
<path class="st6" d="M901.2,171.3c-10.4-12.9-20.9-25.7-31.1-38.7c-2-2.6-4.2-3.4-7.3-3.4c-23.2,0.1-46.5,0-69.7-0.1
	c-1.4,0-2.9,0-4.3-0.1c-1.3,0-2.1-0.7-2.1-2c-0.1-1.3-0.1-2.5-0.1-3.8c0-11.9,0-23.9,0-35.8c0-3.9-0.1-4-4.1-4c-10.5,0-21,0-31.5,0
	c-6,0-5.7-0.3-5.7,5.8c0,8.1,0,16.2,0,24.3c0,4.1-0.1,4.1-4.3,4.2c-1.1,0-2.2,0-3.3,0c-22.4,0-44.9,0-67.3,0c-1.7,0-3.5-0.4-5.4,0.5
	c0.6,2,1.8,3.1,2.7,4.3c44,57.1,88.1,114.1,132.1,171.2c3.5,4.5,7,9,10.5,13.6c1.3,1.7,2.4,1.9,3.6,0c0.3-0.5,0.7-1.1,1.1-1.6
	c28.9-42.5,57.7-85,86.6-127.6C903.9,174.7,903.9,174.6,901.2,171.3z"/>
<path class="st6" d="M942.2,294.4L942.2,294.4C942.3,294.5,942.3,294.5,942.2,294.4z"/>
<path class="st0" d="M1108.5,397.1c-12.9-16-25.8-31.9-38.8-47.9c-61.4-75.8-122.9-151.6-184.2-227.5c-2.8-3.5-5.6-5.1-10.3-5
	c-24.7,0.3-49.4,0.1-74,0.1c-4.1,0-4.2,0-4.2-4.2c0-11,0-22,0-33c0-4.2,0-4.3-4.1-4.3c-18,0-36,0-54,0c-3.9,0-4,0.1-4,3.9
	c0,8.4,0,16.9,0,25.3c0,6,0.6,5.4-5.3,5.4c-25.8,0-51.6,0-77.4,0c-1.7,0-3.4,0-6.2,0c61.6,80.3,122.5,159.8,183.7,239.5
	c11.7-17.7,22.9-34.6,34.1-51.6c0.1-0.1,21.8-33.6,21.8-33.6c5-7.6,9.5-14.5,14.1-21.4c1.4-2.1,2.3-0.6,3.2,0.5
	c4.1,5.3,8.2,10.6,12.2,15.9c1,1.3,27,35,27,35c0,0,2.3,2.3,3.2,3.5c26.3,33.2,52.6,66.4,78.8,99.7c2.2,2.8,4.5,3.8,8,3.8
	c17.5-0.2,35-0.1,52.5-0.1c8.6,0,17.2,0,26.1,0C1110.7,399.1,1109.4,398.2,1108.5,397.1z M813.9,307.4c-1.2,1.9-2.3,1.8-3.6,0
	c-3.5-4.6-7-9.1-10.5-13.6c-44-57.1-88.1-114.1-132.1-171.2c-1-1.2-2.2-2.3-2.7-4.3c2-0.9,3.7-0.5,5.4-0.5c22.4,0,44.9,0,67.3,0
	c1.1,0,2.2,0,3.3,0c4.2-0.1,4.3-0.1,4.3-4.2c0-8.1,0-16.2,0-24.3c0-6.1-0.3-5.8,5.7-5.8c10.5,0,21,0,31.5,0c4,0,4,0.1,4.1,4
	c0,11.9,0,23.9,0,35.8c0,1.3,0,2.5,0.1,3.8c0.1,1.3,0.8,2,2.1,2c1.4,0,2.9,0.1,4.3,0.1c23.2,0,46.5,0.1,69.7,0.1
	c3.1,0,5.2,0.8,7.3,3.4c10.2,13,20.7,25.8,31.1,38.7c2.7,3.4,2.7,3.4,0.4,6.9c-28.9,42.5-57.7,85.1-86.6,127.6
	C814.6,306.3,814.2,306.8,813.9,307.4z M1072.1,391.5c-1.7,0.1-3.5,0.3-5.2,0.3c-10.7,0-21.3-0.1-32,0.1c-3.6,0.1-6.1-0.9-8.4-3.9
	c-16.6-21.2-33.4-42.2-50.1-63.2c-23.8-29.9-47.6-59.8-71.3-89.7c-1.2-1.5-2.2-3.1-3.8-4.1c-1.9,1.2-2.7,3-3.7,4.5
	c-21.3,30.8-42.5,61.5-63.8,92.3c-3.6,5.2-3.2,5.6-7.3,0.4c-0.7-0.9-1.6-1.6-1.8-2.7c-0.1-0.1-0.3-0.2-0.4-0.3
	c-2.6-3.4-6.5-6.6-7.4-10.4c-0.9-4.1,3.8-7.3,6.1-10.7c27.8-40.6,55.8-81,83.7-121.5c0.9-1.3,1.5-2.8,3.4-3.9
	c57.8,70.8,115.7,141.6,174.3,213.2C1079.5,391.8,1075.8,392,1072.1,391.5z"/>
<path class="st7" d="M252.8,295.9"/>
<path class="st6" d="M208.5,328.3c0-4.3-0.1-8.6,0-12.8c0-2.2-0.9-3.2-3.1-3.1c-5.4,0.1-10.8,0-16.2,0c-2,0-2.8,0.9-2.8,2.9
	c0,8.7,0,17.4,0,26.2c0,2,0.9,2.8,2.9,2.8c5.4,0,10.8-0.1,16.2,0c2.3,0,3.1-0.9,3.1-3.1C208.5,336.9,208.5,332.6,208.5,328.3z"/>
<path class="st6" d="M189.4,302.2c5.4,0,10.8,0,16.2,0c2,0,2.9-0.8,2.9-2.8c-0.1-3.5,0-7,0-10.5c0,0,0,0,0,0c0-3.2,0-6.3,0-9.5
	c0-0.3,0-0.6,0-1c-0.1-1.1,0.1-2.2-1.2-2.8c-2.4-1-7.3,0-9.1,2.2c-2.6,3-4.8,6.4-7.6,9.1c-3.9,3.6-3.9,8-3.7,12.7
	C186.9,301.3,187.6,302.2,189.4,302.2z"/>
<path class="st6" d="M225.9,312.3c-2.3,0-3.6,0.7-3.5,3.2c0.1,8.6,0,17.1,0,25.7c0,1.9,0.6,3,2.7,3c5.6,0,11.1,0,16.7,0
	c2.1,0,2.8-1,2.8-2.9c-0.1-4.3,0-8.6,0-12.8c0,0,0,0,0,0c0-4.1,0.1-8.2,0-12.4c-0.1-3.5-0.2-3.7-3.9-3.8
	C235.8,312.3,230.8,312.4,225.9,312.3z"/>
<path class="st6" d="M227.8,260.9l3.2,4.7c0.3,0,0.6,0,0.9,0c-5.3-7.6-10.1-14.6-15.4-22.3c-6.1,7.7-11.7,14.8-17.6,22.3
	c0.4,0,0.9,0,1.3,0l0.8-1l-0.8,1c10.5,0,20.4,0,30.9,0L227.8,260.9z"/>
<path class="st6" d="M284.2,330.6c0.9,1.4,2,1.6,3,0.1c1.4-2.1,3.4-3.8,4.3-6.3c2.7-3,4.8-6.4,6.8-9.9c1.4-0.9,2.1-2.3,3.1-3.6
	c46.2-61.2,92.5-122.4,138.7-183.6c1.3-1.7,4.1-3.4,3-5.5c-1.1-2-4.1-0.9-6.2-0.9c-23.6-0.1-47.1,0-70.7-0.1c-4.5,0-4.6-0.1-4.6-4.5
	c0-7.6,0-15.3,0-22.9c0-7.1,0.7-6.5-6.3-6.5c-9.6,0-19.1,0-28.7,0c-1.1,0-2.2,0-3.3,0.1c-1.6,0-2.3,0.8-2.4,2.3
	c0,1.3-0.1,2.5-0.1,3.8c0,11.6,0,23.2,0,34.9c0,3.9-0.1,3.9-4.1,4c-1,0-1.9,0-2.9,0c-20.9,0-41.7,0.1-62.6,0c-3,0-5,0.9-6.9,3.2
	c-11.6,14.2-23.3,28.3-34.9,42.4c-0.9,1.1-2.1,2-2.1,3.6c-1.1,1.2-2.2,2.3-3.2,3.5c-13.7,16.7-27.4,33.5-41,50.2
	C121.5,286,80,336.8,38.5,387.6c-0.9,1.2-2.3,2.1-2.5,4.2c3.9-0.2,7.5,0.3,11.1-0.3c0.5,0.1,0.9,0.2,1.4,0.2c12.6,0,25.2,0,37.7,0.1
	c2.4,0,3.8-1.2,5.1-2.9c6.5-8.2,13.1-16.5,19.6-24.7c33.9-42.6,67.8-85.2,101.7-127.8c1-1.3,1.8-3.1,3.7-3.5
	c1.5,1.1,2.3,2.7,3.3,4.1c20.7,30,41.4,60,62.1,90C282.5,328.3,283.4,329.4,284.2,330.6z"/>
<path class="st6" d="M224.5,275.4c-2.3,0.1-3,1.1-3,3.3c0.1,3.3,0,6.7,0,10c0,0,0,0,0,0c0,3.7,0,7.3,0,11c0,1.8,0.8,2.6,2.6,2.6
	c5.4,0,10.8,0,16.2,0c0.9,0,2.3,0,2.3-1.2c0.1-3.9,1.6-7.9-1.3-11.5c-2.9-3.6-6.1-7-8.7-10.7C230.6,275.8,227.9,275.2,224.5,275.4z"
	/>
<path class="st0" d="M286.9,345c9.9-11.3,173.1-227.7,174.4-231.3c-1.7-0.6-3.5-0.3-5.2-0.3c-26.6,0-53.2,0-79.8,0
	c-4.5,0-4.5,0-4.5-4.4c0-8.8,0-17.5,0-26.3c0-3.6-0.1-3.6-3.7-3.7c-17.8,0-35.7,0-53.5,0c-3.9,0-4,0.1-4,3.9c0,10.7,0,21.3,0,32
	c0,5.1,0.7,5.2-5.2,5.2c-21.5,0-43,0.1-64.5-0.1c-3.9,0-6.4,1.2-8.8,4.2C158.6,215,85,305.8,11.5,396.6c-1,1.2-2.2,2.3-2.9,4.7
	c2.1,0,3.6,0,5.1,0c23.9,0,47.8-0.1,71.6,0.1c4.5,0,7.2-1.3,9.9-4.8c25.6-32.7,51.5-65.2,77.2-97.8c0.9-1.1,26.7-33.2,26.2-33.2
	c5.9-7.5,11.6-14.7,17.6-22.3c5.3,7.7,10.2,14.7,15.4,22.3c-0.3,0,20.7,30.6,21,30.3C264.2,312.4,275.5,328.6,286.9,345z
	 M219.6,237.1c-1-1.4-1.8-3-3.3-4.1c-1.9,0.5-2.6,2.2-3.7,3.5c-33.9,42.6-67.8,85.2-101.7,127.8c-6.5,8.2-13.1,16.4-19.6,24.7
	c-1.3,1.7-2.7,2.9-5.1,2.9c-12.6-0.1-25.2-0.1-37.7-0.1c-0.5,0-0.9-0.1-1.4-0.2c-3.6,0.6-7.2,0.1-11.1,0.3c0.2-2.1,1.5-3.1,2.5-4.2
	C80,336.8,121.5,286,163.1,235.1c13.7-16.7,27.3-33.5,41-50.2c1-1.2,2.1-2.3,3.2-3.5c0-1.6,1.2-2.5,2.1-3.6
	c11.6-14.1,23.3-28.2,34.9-42.4c1.9-2.3,3.9-3.2,6.9-3.2c20.9,0.1,41.7,0,62.6,0c1,0,1.9,0,2.9,0c4-0.1,4.1-0.1,4.1-4
	c0.1-11.6,0-23.2,0-34.9c0-1.3,0-2.5,0.1-3.8c0-1.5,0.8-2.3,2.4-2.3c1.1,0,2.2,0,3.3-0.1c9.6,0,19.1,0,28.7,0c7,0,6.3-0.6,6.3,6.5
	c0,7.6,0,15.3,0,22.9c0,4.4,0.1,4.5,4.6,4.5c23.6,0,47.1,0,70.7,0.1c2.1,0,5.2-1.1,6.2,0.9c1.1,2.1-1.7,3.8-3,5.5
	c-46.2,61.2-92.4,122.5-138.7,183.6c-0.9,1.3-1.7,2.7-3.1,3.6c-2,3.5-4.1,6.9-6.8,9.9c-0.9,2.4-2.8,4.2-4.3,6.3c-1,1.5-2,1.2-3-0.1
	c-0.8-1.2-1.6-2.3-2.5-3.5C261,297.1,240.3,267.1,219.6,237.1z"/>
</svg>
